<svg xmlns="http://www.w3.org/2000/svg" xmlns:xlink="http://www.w3.org/1999/xlink" xmlns:fi="http://pattern.flaticon.com/" x="0" y="0" width="700" height="350" viewBox="0 0 688.2022471910112 344.1011235955056"><rect x="0px" y="0px" width="100%" height="100%" opacity="1" fill="#000000"/><defs><g transform="matrix(0.09765625 0 0 0.09765625 150 325)" id="L1_2"><path d="M163.096,419.1C73.168,419.1,0,345.932,0,256.004C0,166.068,73.168,92.9,163.096,92.9  c89.936,0,163.104,73.168,163.104,163.104C326.2,345.932,253.032,419.1,163.096,419.1z M163.096,124.908  C90.808,124.908,32,183.716,32,256.004S90.808,387.1,163.096,387.1S294.2,328.292,294.2,256.004S235.384,124.908,163.096,124.908z" fill="#cccccc"/><path d="M348.904,419.1c-89.928,0-163.096-73.168-163.096-163.096c0-89.936,73.168-163.104,163.096-163.104  C438.84,92.908,512,166.068,512,256.004C512,345.932,438.84,419.1,348.904,419.1z M348.904,124.908  c-72.288,0-131.096,58.816-131.096,131.104s58.808,131.096,131.096,131.096S480,328.292,480,256.004  S421.192,124.908,348.904,124.908z" fill="#999999"/></g><g transform="matrix(0.09744764864444733 0 0 0.09744764864444733 237.5 150)" id="L1_3"><path d="M256.548,211.056c74.448,0,135.016,60.568,135.016,135.016s-60.568,135.024-135.016,135.024  S121.532,420.528,121.532,346.08S182.1,211.056,256.548,211.056 M256.548,179.056c-92.24,0-167.016,74.776-167.016,167.016  s74.776,167.024,167.016,167.024S423.564,438.32,423.564,346.08S348.788,179.056,256.548,179.056L256.548,179.056z" fill="#999999"/><path d="M256.548,1.096 256.548,178.864 141.676,63.32 216.892,1.096z" fill="#e2e2e2"/><path d="M256.548,1.096 256.548,178.864 371.42,63.32 296.204,1.096z" fill="#999999"/><rect x="141px" y="61px" width="229px" height="4px" fill="#222020"/><path d="M256.548,65.328 215.22,2.192 218.564,0 256.548,58.024 294.532,0 297.876,2.192z" fill="#222020"/></g><g transform="matrix(0.13671875 0 0 0.13671875 315 315)" id="L1_4"><path d="M384.24,502.08 255.92,393.52 127.6,502.08 106.96,477.68 255.92,351.6 404.96,477.68z"/><rect x="21px" y="30px" width="469px" height="341px" fill="#eaeaea"/><rect x="0px" y="9px" width="512px" height="21px"/><rect x="0px" y="372px" width="512px" height="21px"/><rect x="159px" y="448px" width="192px" height="8px"/><path d="M256,104.792V318.96L146.744,194.712c0,0-41.576-53.176-0.968-93.304  C182.736,64.888,234.248,81.584,256,104.792z" fill="#ef0000"/><path d="M256,104.792V318.96l109.256-124.248c0,0,41.576-53.176,0.968-93.304  C329.264,64.888,277.752,81.584,256,104.792z" fill="#d80000"/></g><g transform="matrix(0.09765625 0 0 0.09765625 62.5 150)" id="L1_5"><path d="M256,22.145v157.344l-80.272-91.28c0,0-30.544-39.072-0.712-68.552  C202.176-7.175,240.016,5.097,256,22.145z" fill="#ef0000"/><path d="M256,22.145v157.344l80.272-91.28c0,0,30.544-39.072,0.712-68.552  C309.824-7.175,271.984,5.097,256,22.145z" fill="#d80000"/><path d="M163.104,508.001C73.16,508.001,0,434.833,0,344.897c0-89.928,73.168-163.096,163.104-163.096  c89.928,0,163.096,73.168,163.096,163.096C326.192,434.833,253.032,508.001,163.104,508.001z M163.104,213.809  C90.816,213.809,32,272.609,32,344.897s58.816,131.104,131.104,131.104S294.2,417.185,294.2,344.897  S235.392,213.809,163.104,213.809z" fill="#cccccc"/><path d="M348.896,508.001c-89.928,0-163.096-73.168-163.096-163.104c0-89.928,73.168-163.096,163.096-163.096  C438.832,181.809,512,254.969,512,344.897C512,434.833,438.832,508.001,348.896,508.001z M348.896,213.809  c-72.288,0-131.096,58.808-131.096,131.096s58.808,131.096,131.096,131.096S480,417.185,480,344.897  S421.184,213.809,348.896,213.809z" fill="#999999"/></g></defs><g fi:class="KUsePattern"><pattern id="pattern_L1_2" width="350" height="350" patternUnits="userSpaceOnUse"><use xlink:href="#L1_2" x="-350" y="-350"/><use xlink:href="#L1_2" x="0" y="-350"/><use xlink:href="#L1_2" x="350" y="-350"/><use xlink:href="#L1_2" x="-350" y="0"/><use xlink:href="#L1_2" x="0" y="0"/><use xlink:href="#L1_2" x="350" y="0"/><use xlink:href="#L1_2" x="-350" y="350"/><use xlink:href="#L1_2" x="0" y="350"/><use xlink:href="#L1_2" x="350" y="350"/></pattern><rect x="0" y="0" width="100%" height="100%" fill="url(#pattern_L1_2)"/></g><g fi:class="KUsePattern"><pattern id="pattern_L1_3" width="350" height="350" patternUnits="userSpaceOnUse"><use xlink:href="#L1_3" x="-350" y="-350"/><use xlink:href="#L1_3" x="0" y="-350"/><use xlink:href="#L1_3" x="350" y="-350"/><use xlink:href="#L1_3" x="-350" y="0"/><use xlink:href="#L1_3" x="0" y="0"/><use xlink:href="#L1_3" x="350" y="0"/><use xlink:href="#L1_3" x="-350" y="350"/><use xlink:href="#L1_3" x="0" y="350"/><use xlink:href="#L1_3" x="350" y="350"/></pattern><rect x="0" y="0" width="100%" height="100%" fill="url(#pattern_L1_3)"/></g><g fi:class="KUsePattern"><pattern id="pattern_L1_4" width="350" height="350" patternUnits="userSpaceOnUse"><use xlink:href="#L1_4" x="-350" y="-350"/><use xlink:href="#L1_4" x="0" y="-350"/><use xlink:href="#L1_4" x="350" y="-350"/><use xlink:href="#L1_4" x="-350" y="0"/><use xlink:href="#L1_4" x="0" y="0"/><use xlink:href="#L1_4" x="350" y="0"/><use xlink:href="#L1_4" x="-350" y="350"/><use xlink:href="#L1_4" x="0" y="350"/><use xlink:href="#L1_4" x="350" y="350"/></pattern><rect x="0" y="0" width="100%" height="100%" fill="url(#pattern_L1_4)"/></g><g fi:class="KUsePattern"><pattern id="pattern_L1_5" width="350" height="350" patternUnits="userSpaceOnUse"><use xlink:href="#L1_5" x="-350" y="-350"/><use xlink:href="#L1_5" x="0" y="-350"/><use xlink:href="#L1_5" x="350" y="-350"/><use xlink:href="#L1_5" x="-350" y="0"/><use xlink:href="#L1_5" x="0" y="0"/><use xlink:href="#L1_5" x="350" y="0"/><use xlink:href="#L1_5" x="-350" y="350"/><use xlink:href="#L1_5" x="0" y="350"/><use xlink:href="#L1_5" x="350" y="350"/></pattern><rect x="0" y="0" width="100%" height="100%" fill="url(#pattern_L1_5)"/></g></svg>